<svg width="189" height="168" viewBox="0 0 189 168" fill="none" xmlns="http://www.w3.org/2000/svg">
<mask id="path-1-outside-1_2_875" maskUnits="userSpaceOnUse" x="0" y="0" width="189" height="168" fill="black">
<rect fill="white" width="189" height="168"/>
<path d="M0 0H188V168H0V0Z"/>
</mask>
<path d="M187 0V168H189V0H187Z" fill="#414042" mask="url(#path-1-outside-1_2_875)"/>
<path d="M5.038 87.4309C5 87.2969 5 87.1829 5 87.0889C5 86.8789 5.076 86.7829 5.229 86.7829C5.553 86.7829 5.553 87.3349 6.01 88.2489C6.6 89.4479 7.856 90.1719 9.321 90.1719C11.281 90.1719 12.499 88.9919 12.499 87.2779C12.499 85.6029 11.435 85.0319 9.341 84.424C6.675 83.644 5.419 82.7489 5.419 80.5989C5.419 78.5999 7.037 77.1169 9.607 77.1169C11.091 77.1169 11.949 77.7059 12.214 77.7059C12.442 77.7059 12.613 77.4959 12.728 77.4959C12.785 77.4959 12.842 77.5919 12.861 77.7639L13.129 80.0859C13.147 80.1819 13.147 80.2569 13.147 80.3329C13.147 80.5049 13.09 80.5999 12.918 80.5999C12.557 80.5999 12.633 80.1049 12.215 79.4569C11.434 78.2209 10.578 77.6869 9.228 77.6869C7.59 77.6869 6.411 78.6949 6.411 80.0459C6.411 81.5879 7.42 81.9869 9.21 82.5599C10.541 82.9779 11.607 83.3209 12.273 83.9299C13.11 84.6909 13.491 85.6429 13.491 86.8789C13.491 89.2579 11.779 90.8579 8.809 90.8579C6.924 90.8579 5.592 90.2479 5.459 89.5639L5.038 87.4309Z" fill="#696969"/>
<path d="M29.449 90.661C29.638 90.667 29.723 90.611 29.723 90.457C29.723 90.165 29.398 90.269 29.107 90.148C28.677 89.976 28.472 89.702 28.472 89.394C28.472 89.137 28.576 88.864 28.73 88.521L29.569 86.705C29.757 86.294 29.879 86.071 30.34 86.071H34.194C34.638 86.071 34.776 86.208 34.93 86.602L35.822 88.914C35.941 89.204 35.992 89.411 35.992 89.564C35.992 89.872 35.804 90.027 35.428 90.164C35.188 90.249 35.033 90.268 35.033 90.473C35.033 90.559 35.119 90.679 35.221 90.679C35.375 90.679 35.888 90.558 36.814 90.558C37.876 90.558 38.544 90.661 38.784 90.661C38.938 90.661 39.007 90.61 39.007 90.456C39.007 90.165 38.613 90.268 38.219 90.097C37.67 89.873 37.362 89.326 37.037 88.486L33.148 78.586C33.08 78.415 33.045 78.312 32.925 78.312C32.787 78.312 32.737 78.381 32.652 78.552L27.907 88.693C27.616 89.291 27.342 89.715 27.015 89.994C26.76 90.212 26.566 90.212 26.29 90.098C25.743 89.872 25.434 89.327 25.108 88.488L21.22 78.587C21.151 78.416 21.117 78.313 20.997 78.313C20.859 78.313 20.809 78.382 20.724 78.553L15.98 88.69C15.689 89.288 15.431 89.735 15.089 89.991C14.798 90.214 14.403 90.197 14.403 90.437C14.403 90.557 14.507 90.659 14.608 90.659C14.78 90.659 15.106 90.557 15.568 90.557C16.528 90.557 17.195 90.659 17.521 90.659C17.709 90.659 17.795 90.608 17.795 90.454C17.795 90.163 17.47 90.266 17.178 90.145C16.749 89.973 16.544 89.7 16.544 89.391C16.544 89.134 16.647 88.861 16.801 88.518L17.641 86.702C17.829 86.291 17.949 86.068 18.412 86.068H22.266C22.711 86.068 22.848 86.206 23.003 86.6L23.893 88.912C24.013 89.202 24.065 89.409 24.065 89.562C24.065 89.87 23.876 90.025 23.501 90.163C23.26 90.247 23.106 90.266 23.106 90.471C23.106 90.558 23.191 90.683 23.294 90.677C24.391 90.614 25.394 90.545 26.466 90.545C27.512 90.548 29.076 90.653 29.449 90.661ZM22.045 85.386H18.774C18.482 85.386 18.345 85.319 18.345 85.165C18.345 85.078 18.379 84.976 18.448 84.855L20.298 80.899C20.368 80.762 20.453 80.711 20.521 80.711C20.591 80.711 20.676 80.78 20.728 80.916L22.287 84.924C22.338 85.062 22.373 85.148 22.373 85.216C22.369 85.318 22.25 85.386 22.045 85.386ZM33.972 85.386H30.7C30.41 85.386 30.272 85.319 30.272 85.165C30.272 85.078 30.306 84.976 30.375 84.855L32.226 80.899C32.294 80.762 32.379 80.711 32.449 80.711C32.516 80.711 32.603 80.78 32.654 80.916L34.214 84.924C34.265 85.062 34.3 85.148 34.3 85.216C34.297 85.318 34.177 85.386 33.972 85.386Z" fill="#696969"/>
<path d="M43.038 79.8539C43.038 79.5279 42.918 79.4259 42.559 79.4259H40.178C39.545 79.4259 39.184 79.7339 38.893 80.4029C38.705 80.8649 38.74 81.2419 38.465 81.2419C38.328 81.2419 38.295 81.1729 38.295 81.0189C38.295 80.9509 38.295 80.8469 38.312 80.7279L38.5 78.9979C38.534 78.6549 38.654 78.6389 39.064 78.6389C39.441 78.6389 40.109 78.7429 41.085 78.7429H46.429C47.509 78.7429 48.245 78.6389 48.622 78.6389C48.862 78.6389 48.964 78.7239 48.981 78.9299L49.101 80.4889V80.6089C49.101 80.8139 49.049 80.9339 48.895 80.9339C48.586 80.9339 48.707 80.4889 48.519 80.1279C48.295 79.6999 47.799 79.4269 47.131 79.4269H44.904C44.509 79.4269 44.373 79.5129 44.373 79.8709V88.5559C44.373 89.4119 44.406 89.7379 45.023 90.0119C45.588 90.2689 45.965 90.1319 45.965 90.4409C45.965 90.6129 45.845 90.6969 45.588 90.6969C45.091 90.6969 44.441 90.5779 43.636 90.5779C42.659 90.5779 42.025 90.7319 41.735 90.7319C41.529 90.7319 41.41 90.6449 41.41 90.4919C41.41 90.1149 41.959 90.2509 42.421 90.0469C43.037 89.7729 43.037 89.3959 43.037 88.4879L43.038 79.8539Z" fill="#696969"/>
<path d="M56.005 90.8841C52.391 90.8841 50.182 88.5551 50.182 84.8391C50.182 82.9381 50.798 81.3271 51.946 80.1111C52.991 78.9971 54.361 78.4661 56.091 78.4661C57.136 78.4661 58.061 78.6711 58.969 79.0821C59.585 79.3561 59.927 79.7501 60.167 79.7501C60.304 79.7501 60.441 79.5961 60.562 79.5961C60.665 79.5961 60.715 79.7151 60.734 79.9391L60.904 81.7191C60.922 81.8571 60.922 81.9591 60.922 82.0621C60.922 82.2501 60.888 82.3531 60.734 82.3531C60.425 82.3531 60.375 81.8231 60.048 81.2911C59.071 79.7501 57.65 78.9281 56.109 78.9281C53.47 78.9281 51.604 81.0001 51.604 84.1351C51.604 87.8181 53.625 90.2831 56.28 90.2831C57.496 90.2831 58.746 89.7871 59.672 88.9141C60.339 88.2801 60.443 87.5961 60.734 87.5961C60.819 87.5961 60.887 87.6991 60.887 87.8341C60.887 87.8691 60.869 87.9721 60.835 88.1081L60.492 89.5131C59.259 90.4391 57.786 90.8841 56.005 90.8841Z" fill="#696969"/>
<path d="M64.038 80.9159C64.038 80.1799 64.004 79.7339 63.508 79.3739C63.028 79.0319 62.479 79.2209 62.479 78.8949C62.479 78.6899 62.583 78.6379 62.839 78.6379C63.164 78.6379 63.746 78.7419 64.586 78.7419C65.75 78.7419 66.35 78.6379 66.47 78.6379C66.641 78.6379 66.744 78.7419 66.744 78.8609C66.744 79.2039 66.179 79.1009 65.767 79.4429C65.373 79.7859 65.357 80.2139 65.357 80.9169V83.5379C65.357 83.9319 65.424 83.9669 65.801 83.9669H71.488C71.866 83.9669 71.951 83.9319 71.951 83.5379V80.9339C71.951 80.1969 71.916 79.7509 71.42 79.3919C70.941 79.0499 70.393 79.2209 70.393 78.8949C70.393 78.6899 70.497 78.6559 70.753 78.6559C71.215 78.6559 71.85 78.7589 72.654 78.7589C73.681 78.7589 74.263 78.6559 74.383 78.6559C74.554 78.6559 74.657 78.7589 74.657 78.8789C74.657 79.2209 74.092 79.1019 73.68 79.4429C73.285 79.7859 73.268 80.2139 73.268 80.9169V88.3509C73.268 89.1219 73.336 89.6019 73.817 89.9609C74.28 90.3039 74.827 90.0989 74.827 90.4589C74.827 90.6629 74.725 90.6969 74.468 90.6969C73.919 90.6969 73.304 90.5949 72.618 90.5949C71.573 90.5949 70.956 90.6969 70.819 90.6969C70.648 90.6969 70.563 90.6129 70.563 90.4739C70.563 90.1499 71.059 90.2179 71.487 89.8409C71.932 89.4459 71.95 89.0189 71.95 88.3339V85.0109C71.95 84.7029 71.813 84.6519 71.487 84.6519H65.8C65.475 84.6519 65.356 84.7039 65.356 85.0109V88.3509C65.356 89.1219 65.423 89.6019 65.903 89.9609C66.366 90.3039 66.915 90.0989 66.915 90.4589C66.915 90.6629 66.811 90.6979 66.556 90.6979C66.007 90.6979 65.39 90.5939 64.704 90.5939C63.659 90.5939 63.059 90.6979 62.923 90.6979C62.751 90.6979 62.65 90.6129 62.65 90.4749C62.65 90.1489 63.147 90.2169 63.575 89.8399C64.021 89.4469 64.038 89.0179 64.038 88.3339V80.9159Z" fill="#696969"/>
<path d="M77.998 80.9159C77.998 80.1799 77.964 79.7339 77.484 79.3739C77.021 79.0149 76.507 79.2369 76.507 78.8609C76.507 78.6899 76.611 78.6379 76.849 78.6379C77.124 78.6379 77.706 78.7419 78.563 78.7419C79.728 78.7419 80.344 78.6379 80.464 78.6379C80.636 78.6379 80.737 78.7419 80.737 78.8609C80.737 79.2039 80.155 79.0999 79.744 79.4429C79.35 79.7859 79.35 80.2139 79.35 80.9169V88.3509C79.35 89.1219 79.402 89.6019 79.881 89.9609C80.344 90.3039 80.891 90.0989 80.891 90.4589C80.891 90.6629 80.789 90.6979 80.532 90.6979C79.985 90.6979 79.384 90.5939 78.682 90.5939C77.62 90.5939 77.02 90.6979 76.883 90.6979C76.713 90.6979 76.61 90.6129 76.61 90.4749C76.61 90.1489 77.106 90.2169 77.536 89.8399C77.981 89.4469 77.998 89.0179 77.998 88.3339V80.9159Z" fill="#696969"/>
<path d="M92.611 90.7798C89.549 90.7798 87.396 88.7068 87.396 85.7938C87.396 83.8148 88.578 82.4819 90.578 81.9109C90.026 81.1869 89.74 80.5209 89.74 79.7989C89.74 78.3329 90.939 77.2668 92.652 77.2668C93.87 77.2668 94.517 77.7238 94.727 77.7238C94.88 77.7238 95.032 77.5528 95.165 77.5528C95.299 77.5528 95.337 77.7038 95.355 78.0288L95.431 79.6658V79.7228C95.431 79.9328 95.336 80.0468 95.222 80.0468C94.954 80.0468 94.954 79.5898 94.613 79.0958C94.003 78.1998 93.242 77.7428 92.367 77.7428C91.453 77.7428 90.844 78.3528 90.844 79.2468C90.844 80.5028 93.166 82.9958 97.658 87.2398C98.039 86.7078 98.199 86.3539 98.273 86.0349C98.538 84.9169 98.176 84.6558 97.43 84.3288C96.977 84.1308 96.402 84.2528 96.402 83.9298C96.402 83.7388 96.574 83.7008 96.897 83.7008C97.164 83.7008 97.832 83.7868 98.573 83.7758C99.567 83.7608 100.603 83.5838 100.632 83.8798C100.685 84.4338 99.258 84.1728 99.119 85.0318C98.998 85.7758 99.164 86.2298 98.192 87.7148C99.905 89.1988 100.951 90.0178 101.542 90.0178C101.828 90.0178 102.037 89.8848 102.189 89.8848C102.303 89.8848 102.378 89.9798 102.378 90.0748C102.378 90.3418 101.788 90.7408 100.857 90.7408C99.734 90.7408 98.707 90.0368 97.259 88.8568C95.927 90.1898 94.383 90.7798 92.611 90.7798ZM92.424 84.1378C91.548 83.1108 91.072 82.4638 90.597 82.4638C89.684 82.4638 88.445 83.5108 88.445 85.0318C88.445 86.0788 88.921 87.2028 89.815 88.0958C90.786 89.0848 92.079 89.6178 93.411 89.6178C94.593 89.6178 95.832 89.2189 96.764 88.4389C94.746 86.6499 93.318 85.1848 92.424 84.1378Z" fill="#696969"/>
<path d="M107.147 87.4309C107.109 87.2969 107.109 87.1829 107.109 87.0889C107.109 86.8789 107.184 86.7829 107.338 86.7829C107.66 86.7829 107.66 87.3349 108.118 88.2489C108.708 89.4479 109.964 90.1719 111.43 90.1719C113.39 90.1719 114.609 88.9919 114.609 87.2779C114.609 85.6029 113.544 85.0319 111.45 84.424C108.784 83.644 107.53 82.7489 107.53 80.5989C107.53 78.5999 109.147 77.1169 111.717 77.1169C113.202 77.1169 114.058 77.7059 114.324 77.7059C114.553 77.7059 114.723 77.4959 114.838 77.4959C114.896 77.4959 114.952 77.5919 114.972 77.7639L115.238 80.0859C115.258 80.1819 115.258 80.2569 115.258 80.3329C115.258 80.5049 115.201 80.5999 115.029 80.5999C114.668 80.5999 114.743 80.1049 114.325 79.4569C113.545 78.2209 112.688 77.6869 111.338 77.6869C109.701 77.6869 108.52 78.6949 108.52 80.0459C108.52 81.5879 109.529 81.9869 111.319 82.5599C112.652 82.9779 113.716 83.3209 114.383 83.9299C115.221 84.6909 115.601 85.6429 115.601 86.8789C115.601 89.2579 113.888 90.8579 110.919 90.8579C109.034 90.8579 107.702 90.2479 107.569 89.5639L107.147 87.4309Z" fill="#696969"/>
<path d="M131.559 90.661C131.748 90.667 131.832 90.611 131.832 90.457C131.832 90.165 131.508 90.269 131.217 90.148C130.787 89.976 130.582 89.702 130.582 89.394C130.582 89.137 130.686 88.864 130.84 88.521L131.679 86.705C131.867 86.294 131.989 86.071 132.451 86.071H136.305C136.75 86.071 136.887 86.208 137.041 86.602L137.932 88.914C138.053 89.204 138.104 89.411 138.104 89.564C138.104 89.872 137.916 90.027 137.539 90.164C137.3 90.249 137.144 90.268 137.144 90.473C137.144 90.559 137.231 90.679 137.332 90.679C137.487 90.679 138 90.558 138.926 90.558C139.988 90.558 140.656 90.661 140.896 90.661C141.05 90.661 141.119 90.61 141.119 90.456C141.119 90.165 140.724 90.268 140.331 90.097C139.782 89.873 139.475 89.326 139.148 88.486L135.261 78.586C135.192 78.415 135.158 78.312 135.037 78.312C134.9 78.312 134.848 78.381 134.764 78.552L130.02 88.691C129.728 89.289 129.454 89.713 129.128 89.992C128.873 90.21 128.678 90.21 128.403 90.096C127.856 89.87 127.547 89.325 127.221 88.486L123.333 78.585C123.263 78.414 123.229 78.311 123.108 78.311C122.972 78.311 122.92 78.38 122.835 78.551L118.092 88.69C117.801 89.288 117.543 89.735 117.201 89.991C116.911 90.214 116.516 90.197 116.516 90.437C116.516 90.557 116.619 90.659 116.722 90.659C116.892 90.659 117.218 90.557 117.681 90.557C118.64 90.557 119.308 90.659 119.634 90.659C119.822 90.659 119.907 90.608 119.907 90.454C119.907 90.163 119.581 90.266 119.291 90.145C118.862 89.973 118.657 89.7 118.657 89.391C118.657 89.134 118.76 88.861 118.914 88.518L119.753 86.702C119.941 86.291 120.062 86.068 120.524 86.068H124.378C124.823 86.068 124.96 86.206 125.114 86.6L126.005 88.912C126.125 89.202 126.177 89.409 126.177 89.562C126.177 89.87 125.988 90.025 125.613 90.163C125.373 90.247 125.218 90.266 125.218 90.471C125.218 90.558 125.303 90.683 125.406 90.677C126.504 90.614 127.506 90.545 128.578 90.545C129.621 90.548 131.186 90.653 131.559 90.661ZM124.154 85.386H120.883C120.592 85.386 120.455 85.319 120.455 85.165C120.455 85.078 120.489 84.976 120.558 84.855L122.409 80.899C122.477 80.762 122.563 80.711 122.63 80.711C122.7 80.711 122.786 80.78 122.837 80.916L124.396 84.924C124.447 85.062 124.482 85.148 124.482 85.216C124.479 85.318 124.359 85.386 124.154 85.386ZM136.081 85.386H132.809C132.518 85.386 132.382 85.319 132.382 85.165C132.382 85.078 132.416 84.976 132.484 84.855L134.336 80.899C134.403 80.762 134.489 80.711 134.559 80.711C134.626 80.711 134.712 80.78 134.763 80.916L136.322 84.924C136.375 85.062 136.409 85.148 136.409 85.216C136.406 85.318 136.286 85.386 136.081 85.386Z" fill="#696969"/>
<path d="M145.147 79.8539C145.147 79.5279 145.027 79.4259 144.668 79.4259H142.286C141.652 79.4259 141.293 79.7339 141.002 80.4029C140.814 80.8649 140.848 81.2419 140.574 81.2419C140.437 81.2419 140.402 81.1729 140.402 81.0189C140.402 80.9509 140.402 80.8469 140.42 80.7279L140.609 78.9979C140.642 78.6549 140.763 78.6389 141.173 78.6389C141.55 78.6389 142.218 78.7429 143.194 78.7429H148.538C149.618 78.7429 150.353 78.6389 150.73 78.6389C150.971 78.6389 151.073 78.7239 151.088 78.9299L151.21 80.4889V80.6089C151.21 80.8139 151.158 80.9339 151.004 80.9339C150.697 80.9339 150.816 80.4889 150.627 80.1279C150.404 79.6999 149.907 79.4269 149.24 79.4269H147.013C146.618 79.4269 146.482 79.5129 146.482 79.8709V88.5559C146.482 89.4119 146.515 89.7379 147.132 90.0119C147.698 90.2689 148.075 90.1319 148.075 90.4409C148.075 90.6129 147.954 90.6969 147.697 90.6969C147.2 90.6969 146.549 90.5779 145.745 90.5779C144.767 90.5779 144.134 90.7319 143.843 90.7319C143.639 90.7319 143.518 90.6449 143.518 90.4919C143.518 90.1149 144.067 90.2509 144.529 90.0469C145.146 89.7729 145.146 89.3959 145.146 88.4879L145.147 79.8539Z" fill="#696969"/>
<path d="M158.114 90.8841C154.5 90.8841 152.289 88.5551 152.289 84.8391C152.289 82.9381 152.906 81.3271 154.054 80.1111C155.1 78.9971 156.469 78.4661 158.2 78.4661C159.244 78.4661 160.169 78.6711 161.076 79.0821C161.693 79.3561 162.035 79.7501 162.276 79.7501C162.414 79.7501 162.55 79.5961 162.671 79.5961C162.774 79.5961 162.824 79.7151 162.842 79.9391L163.014 81.7191C163.03 81.8571 163.03 81.9591 163.03 82.0621C163.03 82.2501 162.997 82.3531 162.842 82.3531C162.533 82.3531 162.483 81.8231 162.156 81.2911C161.179 79.7501 159.758 78.9281 158.217 78.9281C155.578 78.9281 153.712 81.0001 153.712 84.1351C153.712 87.8181 155.733 90.2831 158.388 90.2831C159.604 90.2831 160.854 89.7871 161.78 88.9141C162.448 88.2801 162.552 87.5961 162.842 87.5961C162.927 87.5961 162.996 87.6991 162.996 87.8341C162.996 87.8691 162.978 87.9721 162.945 88.1081L162.601 89.5131C161.369 90.4391 159.896 90.8841 158.114 90.8841Z" fill="#696969"/>
<path d="M166.146 80.9159C166.146 80.1799 166.113 79.7339 165.617 79.3739C165.137 79.0319 164.588 79.2209 164.588 78.8949C164.588 78.6899 164.692 78.6379 164.949 78.6379C165.273 78.6379 165.857 78.7419 166.695 78.7419C167.86 78.7419 168.46 78.6379 168.58 78.6379C168.75 78.6379 168.853 78.7419 168.853 78.8609C168.853 79.2039 168.288 79.1009 167.876 79.4429C167.481 79.7859 167.466 80.2139 167.466 80.9169V83.5379C167.466 83.9319 167.533 83.9669 167.911 83.9669H173.598C173.975 83.9669 174.06 83.9319 174.06 83.5379V80.9339C174.06 80.1969 174.027 79.7509 173.529 79.3919C173.05 79.0499 172.502 79.2209 172.502 78.8949C172.502 78.6899 172.606 78.6559 172.863 78.6559C173.324 78.6559 173.959 78.7589 174.763 78.7589C175.79 78.7589 176.372 78.6559 176.493 78.6559C176.663 78.6559 176.765 78.7589 176.765 78.8789C176.765 79.2209 176.201 79.1019 175.789 79.4429C175.394 79.7859 175.377 80.2139 175.377 80.9169V88.3509C175.377 89.1219 175.446 89.6019 175.926 89.9609C176.389 90.3039 176.936 90.0989 176.936 90.4589C176.936 90.6629 176.834 90.6969 176.578 90.6969C176.028 90.6969 175.413 90.5949 174.727 90.5949C173.681 90.5949 173.066 90.6969 172.928 90.6969C172.757 90.6969 172.672 90.6129 172.672 90.4739C172.672 90.1499 173.168 90.2179 173.596 89.8409C174.041 89.4459 174.059 89.0189 174.059 88.3339V85.0109C174.059 84.7029 173.922 84.6519 173.596 84.6519H167.909C167.583 84.6519 167.463 84.7039 167.463 85.0109V88.3509C167.463 89.1219 167.531 89.6019 168.012 89.9609C168.474 90.3039 169.022 90.0989 169.022 90.4589C169.022 90.6629 168.92 90.6979 168.663 90.6979C168.114 90.6979 167.498 90.5939 166.813 90.5939C165.768 90.5939 165.168 90.6979 165.032 90.6979C164.86 90.6979 164.759 90.6129 164.759 90.4749C164.759 90.1489 165.255 90.2169 165.683 89.8399C166.128 89.4469 166.145 89.0179 166.145 88.3339L166.146 80.9159Z" fill="#696969"/>
<path d="M180.107 80.9159C180.107 80.1799 180.071 79.7339 179.592 79.3739C179.128 79.0149 178.614 79.2369 178.614 78.8609C178.614 78.6899 178.718 78.6379 178.958 78.6379C179.229 78.6379 179.813 78.7419 180.669 78.7419C181.835 78.7419 182.451 78.6379 182.569 78.6379C182.741 78.6379 182.843 78.7419 182.843 78.8609C182.843 79.2039 182.261 79.0999 181.85 79.4429C181.457 79.7859 181.457 80.2139 181.457 80.9169V88.3509C181.457 89.1219 181.51 89.6019 181.987 89.9609C182.45 90.3039 182.998 90.0989 182.998 90.4589C182.998 90.6629 182.894 90.6979 182.638 90.6979C182.09 90.6979 181.491 90.5939 180.788 90.5939C179.726 90.5939 179.125 90.6979 178.989 90.6979C178.818 90.6979 178.716 90.6129 178.716 90.4749C178.716 90.1489 179.212 90.2169 179.641 89.8399C180.087 89.4469 180.104 89.0179 180.104 88.3339V80.9149H180.107V80.9159Z" fill="#696969"/>
</svg>
