<svg width="189" height="168" viewBox="0 0 189 168" fill="none" xmlns="http://www.w3.org/2000/svg">
<mask id="path-1-outside-1_2_874" maskUnits="userSpaceOnUse" x="0" y="0" width="189" height="168" fill="black">
<rect fill="white" width="189" height="168"/>
<path d="M0 0H188V168H0V0Z"/>
</mask>
<path d="M187 0V168H189V0H187Z" fill="#414042" mask="url(#path-1-outside-1_2_874)"/>
<path d="M51.24 106.479H55.368C56.704 106.479 57.799 106.229 58.574 105.668C59.349 105.108 59.737 104.187 59.737 103.127C59.737 102.066 59.349 101.153 58.574 100.584C57.799 100.024 56.738 99.7741 55.368 99.7741H49.017V110.778H51.24V106.479ZM57.583 103.135C57.583 103.66 57.445 103.876 57.126 104.083C56.773 104.299 56.101 104.437 55.084 104.437H51.24V101.86H55.084C56.109 101.86 56.773 101.999 57.126 102.214C57.445 102.359 57.549 102.566 57.583 103.135ZM67.777 110.994C66.545 110.994 65.166 110.822 64.037 110.08C62.908 109.374 62.099 108.072 62.133 106.134V99.7481H64.357V106.134C64.391 108.038 65.382 108.917 67.778 108.951C70.174 108.883 71.165 108.038 71.199 106.134V99.7481H73.423V106.134C73.423 108.072 72.648 109.374 71.519 110.08C70.389 110.822 69.01 110.994 67.777 110.994ZM85.547 110.365C86.676 110.011 87.701 109.064 87.666 107.435C87.666 106.133 86.994 105.358 86.365 104.927C86.89 104.539 87.355 103.902 87.355 102.85C87.39 101.333 86.511 100.454 85.554 100.101C84.607 99.7131 83.581 99.7471 82.978 99.7471H76.67V110.752H82.28C83.15 110.753 84.418 110.753 85.547 110.365ZM84.805 108.426C84.383 108.599 83.745 108.676 83.039 108.676H78.877V106.03H83.211C84.056 106.03 84.658 106.168 84.978 106.418C85.297 106.634 85.434 106.909 85.434 107.409C85.408 107.995 85.228 108.211 84.805 108.426ZM84.633 103.66C84.245 103.876 83.573 104.014 82.625 104.014H78.885V101.791H82.203C83.047 101.791 83.891 101.791 84.391 101.963C84.917 102.136 85.097 102.282 85.097 102.877C85.124 103.273 84.986 103.454 84.633 103.66ZM100.748 110.753H90.941V99.7481H93.164V108.668H100.748V110.753ZM102.893 99.7481H105.117V110.753H102.893V99.7481ZM120.033 107.366L119.818 107.754C118.792 109.874 116.818 110.994 114.035 110.994H113.967C112.097 110.994 110.545 110.469 109.451 109.443C108.356 108.452 107.762 106.978 107.762 105.246C107.762 103.479 108.323 102.006 109.416 101.016C110.511 99.9911 112.062 99.4641 113.967 99.4641C117.25 99.4641 119.076 101.153 119.68 102.704L119.852 103.092L117.879 104.006L117.707 103.583C117.181 102.351 116.121 101.541 113.967 101.506C111.287 101.575 110.055 102.774 110.02 105.419C110.055 107.607 111.467 108.874 114.114 108.908C116.018 108.908 117.147 108.133 117.887 106.754L118.103 106.366L120.033 107.366ZM122.566 110.753V99.7481H124.79V110.753H122.566ZM139 107.436C139 108.315 138.578 109.271 137.699 109.944C136.785 110.616 135.441 111.038 133.502 111.038H133.398C129.727 111.038 128.392 109.202 127.753 108.53L127.435 108.176L129.158 106.695L129.443 107.013C129.865 107.47 130.39 108.883 133.64 108.917C133.923 108.917 134.802 108.883 135.544 108.668C136.319 108.418 136.81 108.064 136.81 107.436C136.81 107.013 136.595 106.797 135.931 106.557C135.294 106.341 134.346 106.238 133.355 106.134C132.226 106.03 130.959 105.918 129.934 105.496C128.909 105.108 128.064 104.299 128.064 102.954C128.064 101.825 128.555 100.912 129.511 100.308C130.425 99.7041 131.7 99.4631 133.286 99.4631C136.913 99.4291 138.395 101.368 138.681 101.755L138.964 102.109L137.31 103.445L137.026 103.127C136.604 102.67 135.897 101.541 133.252 101.506C132.648 101.506 131.839 101.575 131.244 101.791C130.64 102.041 130.331 102.282 130.331 102.816C130.365 103.238 130.504 103.42 131.141 103.626C131.745 103.842 132.623 103.91 133.606 104.014C134.803 104.118 136.071 104.23 137.13 104.687C138.155 105.074 139 105.987 139 107.436ZM58.962 119.672H65.132V125.558H63.055V124.817C62.28 125.342 61.082 125.808 59.427 125.808H59.393C57.523 125.808 55.972 125.282 54.877 124.256C53.783 123.231 53.188 121.792 53.188 120.06C53.188 118.293 53.749 116.82 54.843 115.829C55.938 114.804 57.489 114.312 59.358 114.312C62.108 114.312 64.193 115.614 64.925 117.415L65.063 117.803L63.159 118.828L62.987 118.372C62.28 116.605 60.238 116.364 59.315 116.364C56.67 116.432 55.472 117.63 55.403 120.241C55.438 122.43 56.851 123.697 59.419 123.731C60.937 123.731 62.452 123.059 62.875 121.793H58.963V119.672H58.962ZM79.592 117.836C79.592 116.776 79.204 115.898 78.395 115.328C77.619 114.768 76.524 114.518 75.155 114.518H68.882V125.523H71.105V121.076H74.277L77.482 125.523H80.231L76.844 120.938C78.179 120.654 79.549 119.706 79.592 117.836ZM77.402 117.836C77.368 118.397 77.23 118.577 76.842 118.784C76.419 118.957 75.747 119.068 74.868 119.068H71.095V116.604H74.868C75.747 116.604 76.454 116.672 76.842 116.888C77.23 117.104 77.402 117.276 77.402 117.836ZM88.157 114.277C86.287 114.277 84.668 114.838 83.539 115.863C82.41 116.888 81.771 118.371 81.771 120.093C81.771 122.032 82.616 123.48 83.814 124.428C85.046 125.341 86.597 125.807 88.114 125.807C89.631 125.807 91.181 125.384 92.414 124.428C93.646 123.515 94.491 122.032 94.491 120.093C94.491 118.37 93.853 116.888 92.724 115.863C91.647 114.838 90.062 114.277 88.157 114.277ZM92.285 119.879C92.25 122.775 90.242 123.653 88.157 123.723C86.08 123.688 84.064 122.775 84.029 119.879C84.029 117.759 85.615 116.355 88.157 116.319C90.691 116.354 92.285 117.768 92.285 119.879ZM106.064 114.519H108.287V120.905C108.287 122.844 107.512 124.145 106.383 124.851C105.254 125.558 103.875 125.765 102.643 125.765C101.412 125.765 100.033 125.592 98.904 124.851C97.775 124.145 96.966 122.844 97 120.905V114.519H99.224V120.905C99.258 122.844 100.249 123.688 102.644 123.723C105.04 123.654 106.031 122.809 106.066 120.905V114.519H106.064ZM120.844 115.372C120.068 114.811 119.008 114.561 117.638 114.561H111.252V125.566H113.475V121.3H117.638C118.973 121.3 120.068 121.05 120.844 120.489C121.619 119.929 122.006 119.007 122.006 117.947C122.006 116.846 121.619 115.932 120.844 115.372ZM119.818 117.905C119.818 118.43 119.679 118.646 119.361 118.853C119.007 119.068 118.336 119.207 117.318 119.207H113.474V116.596H117.318C118.343 116.596 119.042 116.734 119.361 116.95C119.715 117.164 119.818 117.38 119.818 117.905ZM126.41 123.446H134.347V125.523H124.196V114.518H134.175V116.595H126.419V118.749H132.909V120.825H126.419L126.41 123.446Z" fill="#696969"/>
<path d="M123.377 94.1391L116.784 90.2271C118.086 90.3991 119.249 89.8041 120.344 89.0291L122.352 91.4941L121.12 88.4611C122.456 87.4001 123.55 86.2721 124.929 86.2371C128.669 86.1331 126.058 90.6061 127.394 90.6401C128.911 90.6401 130.565 85.6681 126.903 83.4791C123.129 81.1871 119.82 84.5041 117.139 83.9361L127.152 79.4551H112.52L111.995 78.4641C114.641 79.6621 116.545 78.5331 117.777 77.3011L121.939 77.9051L118.484 76.5691C119.294 75.7241 120 75.0521 120.879 75.3721C122.111 75.8281 122.854 76.9231 124.973 76.9571C128.601 76.9921 131.246 70.5721 126.455 67.7541C126.809 72.3381 124.688 72.5881 120.957 70.1501L122.224 68.0741L120.32 69.7281C116.76 68.1421 115.029 71.2791 113.512 72.3051C111.995 73.3301 110.616 71.2791 108.824 73.7171C111.538 72.8381 112.917 75.4061 114.709 73.7171C113.969 78.3361 111.322 72.3051 108.678 74.5961C110.97 74.7691 112.168 76.8201 113.969 76.8201C117.321 76.8201 114.323 70.3661 119.044 70.3661L118.269 69.8751C120.95 69.6251 121.086 72.3061 125.112 72.3391C125.534 72.9431 124.051 73.0121 123.035 72.6581C122.862 73.5031 128.499 75.4411 127.163 69.0301C128.929 69.9781 128.542 74.0371 126.878 75.5531C126.56 75.8371 126.241 76.0101 126.068 75.6911C125.611 75.0191 126.774 75.0191 127.128 73.9671C125.861 75.0621 123.707 74.9921 122.225 73.6131C120.744 72.2351 118.554 70.5801 117.607 73.4761C116.659 76.3711 115.882 77.7061 114.151 77.7061C111.755 77.7411 109.213 73.7591 106.568 75.9391C111.643 76.3961 112.841 84.4701 117.288 84.5741C120.744 84.5741 121.519 83.0571 123.777 83.0571C126.035 83.0571 128.396 84.2541 128.396 87.2191C128.396 89.0201 127.448 90.0371 127.448 90.0371C127.448 90.0371 128.154 88.5891 127.801 86.7191C127.483 84.9521 125.966 83.8661 123.958 83.8661C121.174 83.8661 118.951 88.4161 115.85 88.4161C109.645 88.4161 108.059 76.4651 101.605 78.3001C106.362 81.5061 106.896 86.6941 109.463 88.6661C112.074 90.6741 115.177 89.8641 116.865 91.3471C117.572 91.9501 117.857 93.0011 118.097 94.1301H117.494C117.278 93.5701 116.968 93.0011 116.468 92.5791C114.987 91.0271 110.514 91.7001 108.463 89.5111C106.421 87.2871 104.903 80.6611 100.88 79.6361C104.404 81.8941 105.18 87.7101 107.688 90.5631C110.195 93.4151 113.539 91.8991 115.056 93.3801C115.339 93.6641 115.546 93.9061 115.762 94.1561H112.866C112.616 94.1211 112.341 94.0871 112.022 94.0871C111.565 94.0871 111.073 94.1211 110.608 94.1561H106.764C106.239 93.9831 105.739 93.7331 105.317 93.2771C103.309 91.1571 103.516 88.9421 103.663 86.3311C104.051 88.7961 104.507 94.4401 108.739 93.8031C103.413 91.9671 106.514 82.8751 100.026 80.5491C99.319 80.2991 99.569 78.0071 101.327 77.6531C97.804 78.3261 97.837 77.0501 100.302 74.4821C98.786 75.4721 97.097 75.1891 96.743 76.2831C96.743 76.2831 99.639 80.7991 99.639 81.6781C99.639 82.5571 97.735 86.1241 97.519 86.2281C96.812 86.6161 94.486 86.6161 93.925 86.4441C93.322 86.2711 92.59 84.3241 92.865 83.7291C93.322 82.7821 96.846 82.0051 96.925 80.6271C96.958 79.5321 95.477 79.4291 95.546 79.9881C96.39 80.2731 96.778 81.5401 94.244 82.1421L94.804 81.2291C94.804 81.2291 92.935 82.7111 92.831 82.7811C92.727 82.8491 92.306 82.8851 92.02 82.7811C91.736 82.7121 89.056 81.4021 89.512 80.1351C89.512 80.1351 90.323 80.4891 92.366 80.4891C94.408 80.4891 94.589 79.6101 94.589 79.6101C94.589 79.6101 93.495 79.8951 92.4 79.8951C91.271 79.8951 90.177 79.6101 90.177 79.6101C89.298 79.3951 90.245 78.3091 90.531 78.2741H92.65C92.789 78.2741 92.969 77.9901 92.65 77.9561C92.435 77.9561 91.099 77.9221 90.996 77.5681C90.824 77.0071 90.471 73.4401 90.471 73.4401C90.471 73.4401 90.928 72.3461 90.539 71.9581C90.152 71.6051 89.979 71.7861 89.979 71.7861C90.858 76.7241 87.083 79.7921 84.938 79.1881L84.688 79.1531C85.179 79.5071 85.783 79.8601 86.592 80.1011C82.576 80.9461 80.913 78.5161 80.284 76.9981C79.93 77.1711 79.93 78.1271 79.966 78.7661C79.12 77.8521 78.63 76.4391 79.405 75.4131C78.38 75.9041 78.344 76.0851 78.344 76.0851C78.379 75.2401 79.862 74.6721 80.602 73.6891C81.344 72.6981 81.206 71.1811 79.577 70.5521C79.681 72.0691 78.94 73.1281 77.389 73.6201C75.907 74.1101 76.157 72.7751 74.778 73.0591C77.036 73.5841 76.933 76.6871 79.181 77.9621C76.183 77.2551 75.658 73.1701 71.986 73.5591C74.106 70.5601 77.416 73.1361 78.794 71.0511C75.235 71.8611 72.797 68.8621 72.375 65.5531C71.814 60.5461 67.54 63.0111 67.617 60.5461C69.771 61.4941 74.529 57.8331 75.941 62.0281C77.423 66.3971 80.388 68.1981 83.068 66.1561L71.432 54.3451L72.913 59.2831C69.88 59.8871 66.217 58.0851 68.191 53.8191C65.295 52.4841 61.495 57.2751 65.019 61.0141C66.639 62.7371 70.628 62.1081 71.646 65.6331L67.872 65.3141L71.75 66.3391L72.913 69.7601L63.848 65.3571L69.414 71.8461C66.174 73.5691 65.355 68.6401 61.168 68.7431C58.238 68.8121 54.929 71.8461 56.299 75.3701C60.702 72.6891 62.115 74.5941 63.986 76.4651L61.272 77.9121L64.477 76.9211C65.606 77.9811 67.02 78.8591 69.311 78.7231C73.121 78.4381 76.473 77.2051 77.317 78.2661C77.989 79.0411 77.213 79.4981 75.835 79.4981H57.713L64.977 83.4101C64.27 83.9351 62.262 86.4431 60.85 86.4431C59.436 86.4431 56.299 84.2891 55.455 88.0631C58.694 87.5021 60.323 94.5861 67.123 88.9421L63.951 94.1991H49V96.0001H138.879V94.1731H123.377V94.1391ZM119.852 72.7761C121.507 73.4821 116.363 78.5231 114.777 78.3421C118.06 77.3601 118.163 72.0691 119.852 72.7761ZM120.524 87.6151C121.687 84.5121 125.359 83.1681 126.875 85.8911C126.944 86.0291 126.841 86.1411 126.557 85.8571C124.653 83.9531 122.222 85.7531 120.705 87.7261C120.49 88.0461 120.421 87.8651 120.524 87.6151ZM67.459 54.2671C66.511 55.9211 66.684 58.9551 70.526 59.8771C64.106 61.3141 64.287 54.0171 67.459 54.2671ZM62.279 74.0771C59.314 72.4571 56.713 74.3961 56.713 74.3961C57.583 71.4661 63.055 71.2251 62.279 74.0771ZM63.58 72.9141C63.124 72.3101 62.77 71.8191 62.279 71.6471C61.641 71.4741 60.978 71.4741 60.34 71.5091C59.6 71.5431 58.928 71.5771 58.755 71.1201C58.617 70.8021 58.755 70.4821 59.143 70.2071C59.531 69.9231 60.134 69.7161 60.729 69.6821C61.401 69.6481 61.961 69.7851 62.348 70.1381C62.737 70.4571 62.874 70.4921 62.952 70.4571C63.056 70.4231 63.021 70.1731 63.021 70.0341C63.021 69.9301 62.987 69.8191 63.055 69.8621C64.116 70.0341 64.606 70.6731 65.175 71.3441C66.088 72.4381 67.467 74.0931 70.854 73.4981C69.957 76.5161 65.098 75.5941 63.58 72.9141ZM66.295 77.0421C66.123 75.7401 72.715 74.7491 72.784 76.6541C72.818 78.2731 66.511 78.4891 66.295 77.0421ZM89.32 79.9631C88.441 80.2471 88.295 81.6521 90.838 82.2551C90.027 82.3591 87.984 82.0051 87.908 80.6011C87.873 79.5061 89.355 79.4021 89.32 79.9631ZM86.848 82.3671C89.209 82.5051 91.717 83.7031 91.717 83.7031C92.001 84.3071 91.294 86.2451 90.656 86.4171C90.095 86.5901 87.235 86.2791 86.812 85.0821C88.501 85.5381 88.648 84.9091 88.648 84.9091C88.648 84.9091 87.097 84.9091 86.46 83.8491C87.691 84.2711 88.261 83.8491 88.261 83.8491C88.261 83.8491 85.901 82.9351 85.83 82.4011H86.856V82.3671H86.848ZM79.127 79.2301C79.799 80.0051 75.498 81.9451 73.344 81.2041C76.946 81.2721 78.428 78.4551 79.127 79.2301ZM74.197 82.0831C76.662 82.0831 78.109 81.2721 78.713 80.6701C78.463 82.4361 76.593 83.0311 74.197 83.0311C71.801 83.0311 69.613 80.4201 67.812 82.1521C70.982 81.7631 71.482 85.1501 75.076 84.0211C71.974 87.3741 69.681 81.4791 66.123 83.1771C67.949 78.8431 71.758 82.0831 74.197 82.0831ZM56.488 87.4781C58.358 84.7291 59.806 88.5031 62.874 86.4171C63.899 88.0371 61.392 89.0631 59.91 88.1411C58.436 87.2281 57.264 87.1931 56.488 87.4781ZM65.52 89.4161C64.141 90.4771 60.686 91.5361 60.729 89.2781C64.357 89.9841 65.175 84.8321 68.381 86.3481C67.562 86.5291 66.855 88.3911 65.52 89.4161ZM65.028 94.1391L75.644 88.2871C75.644 90.2261 75.36 91.6401 74.904 92.6901L69.681 94.1381H65.028V94.1391ZM75.395 94.1391H74.62C75.145 93.3641 75.568 92.4501 76.034 91.3901C76.059 92.0271 75.921 93.1211 75.395 94.1391ZM77.825 94.1391C78.281 90.3991 76.24 84.8321 82.056 80.5321C81.281 81.2391 77.652 84.4101 78.773 93.0531C79.902 91.1831 78.945 84.1001 82.297 81.5571C79.936 84.4531 81.202 89.5291 79.479 94.1481H77.825V94.1391ZM81.531 94.1391H80.229C82.167 90.5111 81.074 84.6511 82.771 82.8591C81.6 84.9361 83.436 90.0201 81.531 94.1391ZM82.763 94.1391L83.823 92.4501C84.349 93.1221 84.634 93.6821 84.737 94.1391H82.763ZM88.787 94.1391H88.08C88.114 93.6141 88.011 93.1141 87.623 92.6221C84.943 89.0621 84.84 88.2871 84.84 88.2871C85.09 91.0021 86.779 91.3551 87.201 94.1391H86.072C85.65 92.0191 83.529 91.2091 84.452 85.0041L84.521 84.5471C84.658 90.1921 88.787 91.1061 88.787 93.8891C88.83 93.9661 88.787 94.0691 88.787 94.1391ZM91.785 94.1391H90.588C91.044 92.2001 90.234 91.5971 88.58 89.8381C91.044 91.5361 91.932 92.7341 91.785 94.1391ZM89.252 88.1841C89.036 88.1161 88.898 87.5801 88.898 87.4781C88.898 87.4441 88.966 87.3401 89.252 87.3401C89.252 87.3401 91.371 87.4081 92.423 87.4081C93.518 87.4081 95.56 87.3401 95.594 87.3401C95.879 87.3401 95.948 87.4441 95.948 87.4781C95.948 87.5811 95.81 88.1501 95.594 88.1841C95.594 88.1841 93.586 88.6761 92.389 88.6071C91.294 88.6751 89.286 88.1841 89.252 88.1841ZM93.448 94.1391C93.482 93.2251 93.31 92.1651 92.603 90.7181C93.835 92.1651 94.189 93.1821 94.224 94.1391H93.448ZM96.197 94.1391H95.456C95.775 93.0441 95.879 91.8461 94.931 90.1581C96.301 91.3551 96.404 92.7341 96.197 94.1391ZM97.68 94.1391H96.835C97.189 92.7261 97.396 91.2091 96.516 89.4161C97.921 90.5801 97.887 92.3811 97.68 94.1391ZM99.119 94.1391L98.24 91.5631C98.946 91.9161 99.437 92.8641 99.894 94.1391H99.119ZM103.178 94.1391C102.653 93.0101 102.083 92.1651 101.454 91.8811C101.91 92.5531 102.229 93.3281 102.514 94.1391H101.627C100.359 91.6311 98.274 89.7701 100.429 85.1511C98.241 89.8741 103.635 92.8031 104.66 93.7521C104.764 93.8561 104.91 94.0021 105.014 94.1741H103.178V94.1391ZM95.354 69.0361C94.931 69.6741 95.991 70.1991 97.077 69.6391C98.025 69.1491 98.663 68.5451 100.18 68.5451C101.128 68.5451 102.472 70.1991 103.213 69.0021C103.739 69.7081 103.04 70.5531 101.911 70.5531C100.749 70.5531 100.257 69.6051 98.809 69.6051C97.361 69.6051 97.085 70.4841 95.215 70.4841C93.311 70.4841 92.923 67.0631 95.431 66.7791C93.975 68.0111 94.5 69.0361 95.354 69.0361ZM110.864 51.5091C110.054 54.9651 107.547 53.8361 105.332 56.8351C103.117 59.8341 106.279 64.9781 100.187 64.9431C105.296 63.6751 102.056 59.9361 104.521 56.3431C105.926 54.2321 109.598 54.3021 110.864 51.5091ZM96.792 59.3771C96.792 59.3771 96.154 61.8071 97.567 63.1851C94.577 62.0901 96.792 59.3771 96.792 59.3771ZM110.795 53.4141C110.02 55.9561 108.537 55.5341 106.918 57.8941C105.047 59.9711 107.521 65.9331 102.367 65.7951C106.461 64.5971 104.203 60.4001 106.176 57.4721C107.271 55.8531 109.701 55.4311 110.795 53.4141ZM109.942 67.1321C109.304 67.5541 107.615 69.3901 106.589 69.8811C106.589 68.6831 109.131 64.6581 113.397 66.3911C112.906 66.8121 111.114 66.3561 109.942 67.1321ZM106.883 72.4571C104.979 71.8531 103.712 73.4051 103.393 72.7071C103.212 71.8191 105.926 71.8191 106.883 72.4571ZM108.779 71.2941C108.71 65.3401 116.535 68.4411 117.457 64.2791C118.129 68.6131 110.441 68.3641 108.779 71.2941ZM106.668 74.9991C103.669 73.6981 102.083 75.5601 101.945 74.6811C101.73 73.3711 105.643 73.5181 106.668 74.9991ZM97.887 52.9231C99.895 57.0501 92.777 58.1791 95.81 63.1511C91.294 59.4461 98.137 56.1371 97.887 52.9231ZM94.043 84.2711C94.215 84.1671 94.361 83.6671 94.431 83.5641C95.207 83.0391 96.155 82.7541 96.585 82.4701C96.516 83.3151 94.818 84.4431 94.043 84.2711ZM86.812 70.9401C85.615 70.6901 84.236 71.8881 82.866 72.5261C84.168 74.3961 87.132 74.5341 88.33 75.2061C88.614 74.7841 89.493 71.4661 86.812 70.9401ZM85.443 73.9741C84.211 73.5181 84.736 71.1571 86.356 71.5101C86.253 71.6821 85.512 73.0951 85.443 73.9741ZM86.356 74.2581C86.881 73.6981 87.269 72.2851 87.381 72.0701C88.545 72.9821 87.382 74.6461 86.356 74.2581ZM86.115 69.7081C84.814 69.7081 81.987 72.5611 81.324 69.7771C81.324 69.7771 81.746 69.9151 82.271 69.8811C82.762 68.2611 85.408 66.7441 87.028 67.2001C85.124 67.3381 83.675 68.6821 83.891 69.4581C84.175 70.4831 85.829 68.8981 87.244 68.9331C88.898 68.9331 89.82 70.6211 91.121 69.0711C91.044 72.3891 87.312 69.7081 86.115 69.7081ZM90.734 52.1121L92.147 55.7831C92.147 55.7831 90.845 57.3001 90.845 59.9801C90.845 65.2361 95.146 65.7261 94.861 63.6071C91.828 64.9861 91.69 60.6081 92.535 59.6961C92.535 59.6961 91.974 61.9871 94.017 62.8321C91.302 58.3521 96.628 56.6621 96.628 53.1031C96.628 50.1391 94.792 49.1571 94.826 46.4421C94.86 43.1591 99.695 42.3141 99.764 43.5461C99.797 44.4591 96.239 44.5371 96.204 47.9491C96.135 51.1211 99.694 51.8961 99.625 54.9641C99.557 56.9721 95.954 58.8421 98.212 62.6501L103.357 48.1571L99.376 52.5601C98.109 50.9751 97.118 50.8361 97.118 48.0101C97.118 45.1841 100.255 44.7701 100.255 43.4601C100.255 42.3991 98.669 42.2621 97.54 42.1931C95.774 42.1241 92.602 43.6751 92.602 46.9491C92.602 50.2321 94.826 51.8871 92.602 54.9901L90.734 52.1121ZM95.387 51.4051C96.801 55.8521 92.182 57.0501 91.794 59.9711C91.51 56.4131 95.913 54.7241 95.387 51.4051ZM83.607 77.2911L83.469 77.0421C83.15 76.5161 83.296 75.3871 83.296 75.3871C82.556 75.3531 81.392 76.8011 81.392 76.8011C81.392 76.8011 80.901 75.1121 82.66 74.3701C82.521 74.1201 82.625 73.8101 82.625 73.8101C84.072 75.2911 86.684 75.2231 87.382 75.7141C87.382 75.6971 82.97 74.9221 83.607 77.2911ZM74.154 55.0421L77.394 56.5941C77.498 57.7231 77.955 58.8861 79.083 60.1881C80.349 61.6681 83.771 62.0901 83.917 65.5461C84.977 64.4861 84.132 62.0561 81.84 60.6781C73.128 55.6031 87.726 47.5971 78.35 44.7451C86.459 44.2191 83.003 51.5521 83.642 54.4741C84.521 58.5331 88.294 57.5421 90.302 60.0841L88.08 47.7431L86.003 56.3441C83.254 55.9211 84.202 52.0091 84.279 48.4851C84.418 41.7471 72.886 43.6941 74.438 47.4601C75.041 48.9081 78.954 45.6591 78.988 49.0801C79.023 51.4071 77.541 53.4151 77.402 55.6731L74.154 55.0421ZM75.248 46.9341C74.473 45.9861 78.351 44.8921 79.058 47.3221C77.152 46.0461 75.637 47.3551 75.248 46.9341ZM89.846 64.0641C91.571 57.8941 78.317 61.2101 82.16 53.9481C80.712 61.1431 92.63 57.4031 89.846 64.0641ZM103.462 77.2141C110.338 74.8871 112.449 86.2791 116.475 86.2021C118.939 86.1331 119.862 84.5471 121.654 84.1601C120.422 84.9701 118.655 87.1241 116.475 87.1581C110.408 87.3051 110.545 77.7831 103.462 77.2141ZM87.908 62.3401C87.908 62.0561 87.804 61.8151 87.589 61.6001C86.322 60.3321 82.582 60.6091 80.85 58.8181C76.904 54.9051 84.478 51.5531 81.911 45.9521C86.633 49.8301 76.378 56.8101 83.212 59.1371C86.108 60.1281 87.09 60.4721 87.796 61.0061C88.253 61.3591 88.571 61.9191 88.571 62.5571C88.571 63.6521 87.692 64.5311 86.598 64.5311C85.994 64.5311 85.469 64.2811 85.116 63.8591C84.341 63.0481 84.591 61.5661 84.056 61.1441C84.969 60.9721 85.469 62.5571 86.383 63.1181C86.555 63.2211 86.736 63.2901 86.908 63.2901C87.451 63.3221 87.908 62.9001 87.908 62.3401ZM77.084 65.1921C77.791 66.8471 79.764 67.4501 80.996 67.4841C78.428 70.8031 76.446 66.7091 77.084 65.1921ZM94.611 85.3231C94.965 85.1071 95.284 84.6851 95.456 84.4431C96.585 84.0211 97.145 83.8061 97.223 83.5991C97.43 84.3411 95.947 85.6761 94.611 85.3231ZM104.375 70.6901C103.6 71.1131 103.212 71.9921 102.928 71.5351C102.756 71.2941 103.35 70.5531 104.375 70.6901ZM102.083 72.1731C100.704 71.5351 99.3 70.3371 98.137 70.5871C95.422 71.1131 96.336 74.4311 96.619 74.8531C97.817 74.1811 100.781 74.0081 102.083 72.1731ZM99.473 73.5521C99.473 73.5521 98.662 71.2601 98.559 71.0871C100.213 70.7251 100.704 73.0951 99.473 73.5521ZM97.533 71.6471C97.637 71.8621 97.99 73.2321 98.558 73.8351C97.533 74.2241 96.369 72.5611 97.533 71.6471ZM108.004 64.1671C106.805 65.5031 106.875 66.5631 105.073 67.7271C107.434 68.7521 107.504 65.6071 109.83 64.9441C111.45 64.4871 112.648 66.4251 114.94 65.3661C117.232 64.3051 116.421 60.0411 117.55 58.1721C118.679 56.3021 121.747 54.5441 123.937 58.3101C123.937 58.3101 120.231 54.6821 118.507 59.0161C119.704 58.0261 121.506 57.7151 121.506 58.6621C120.558 58.9811 119.041 59.5071 118.998 62.8921C118.929 66.8391 117.344 67.6841 116.102 68.5021C114.301 69.6991 110.147 69.6311 109.225 72.3111L123.651 65.8911H119.248C119.808 62.6511 118.575 57.8521 124.608 58.9811C125.348 57.3961 120.342 52.2421 115.973 58.1021L115.551 56.6201C114.639 64.4171 110.511 61.3841 108.004 64.1671ZM115.621 60.2551C116.362 61.5221 114.139 63.8151 114.139 63.8151C114.7 64.0301 114.7 64.8751 113.967 65.0811C112.665 65.4701 111.606 63.9871 109.951 64.4091C110.295 63.8141 113.785 63.9611 115.621 60.2551ZM74.895 67.4501C74.895 64.9081 76.163 63.4691 73.836 61.9181C78.385 62.9091 73.904 69.5701 79.971 69.4671C78.635 71.4661 74.93 70.5191 74.895 67.4501ZM103.988 54.0171V50.9501L104.797 53.6641C106.633 53.1391 108.96 52.1831 108.891 50.5271C108.823 48.8731 107.09 48.1671 107.055 47.1401C107.022 45.6241 112.235 46.5031 112.235 51.3711C112.235 54.8271 111.038 55.8521 111.038 55.8521L115.44 53.5941L107.788 63.5031C107.788 63.5031 105.428 67.0971 103.876 66.4671C105.358 66.1831 107.298 63.7531 107.298 61.5991C107.298 58.7041 109.556 56.9461 110.263 56.0331C111.003 55.0851 114.458 48.5181 108.288 46.9681C112.304 51.0621 108.745 52.9231 105.358 54.2331C102.118 55.4651 103.1 60.4361 102.118 62.1691C101.058 63.9361 98.241 64.5651 97.715 64.5651C98.663 62.9111 100.611 62.3771 101.309 60.4721C102.014 58.4641 100.988 55.5341 103.988 54.0171Z" fill="#696969"/>
</svg>
