<svg width="189" height="168" viewBox="0 0 189 168" fill="none" xmlns="http://www.w3.org/2000/svg">
<mask id="path-1-outside-1_2_876" maskUnits="userSpaceOnUse" x="0" y="0" width="189" height="168" fill="black">
<rect fill="white" width="189" height="168"/>
<path d="M0 0H188V168H0V0Z"/>
</mask>
<path d="M187 0V168H189V0H187Z" fill="#414042" mask="url(#path-1-outside-1_2_876)"/>
<path d="M131.755 72.7166C131.755 71.2272 130.519 70 128.985 70C127.51 70 126.287 71.2272 126.275 72.7166C126.275 74.206 127.51 75.4331 128.985 75.4331C130.519 75.4331 131.755 74.2178 131.755 72.7166Z" fill="#696969"/>
<path d="M126.683 77.3634V92.5425H131.359V77.3634H126.683Z" fill="#696969"/>
<path fill-rule="evenodd" clip-rule="evenodd" d="M31.0043 92.5422V70.4288H35.5846V78.7931C36.232 77.8518 37.9226 76.994 40.0089 76.994C44.4332 76.994 47.1069 80.3539 47.1069 84.9054C47.1069 89.552 44.0975 92.8765 39.8169 92.8765C37.7906 92.8765 36.22 91.9948 35.5126 90.8272V92.5429L31.0043 92.5422ZM39.0021 81.1756C37.1916 81.1756 35.5249 82.367 35.5249 84.9287C35.5249 87.4308 37.1796 88.7175 39.0021 88.7175C40.8125 88.7175 42.4432 87.4665 42.4432 84.9287C42.4432 82.367 40.8125 81.1756 39.0021 81.1756Z" fill="#696969"/>
<path d="M25.1294 86.5496C26.856 86.5496 28.2947 87.9556 28.2947 89.6593C28.2947 91.3393 26.856 92.8048 25.1294 92.8048C23.4148 92.8167 22 91.3512 22 89.6713C22 87.9556 23.4148 86.5496 25.1294 86.5496Z" fill="#696969"/>
<path fill-rule="evenodd" clip-rule="evenodd" d="M62.2505 90.4097C62.79 89.7425 63.1737 88.9799 63.4015 88.1697L59.5039 87.0617C59.3361 87.5144 59.1083 87.9076 58.7845 88.2173C58.245 88.7416 57.4776 89.0514 56.4225 89.0514C54.6 89.0514 53.0414 87.8361 52.9454 86.1204H63.5805C63.6164 86.037 63.6764 85.334 63.6764 84.6906C63.6764 79.8059 60.7632 76.8988 56.0271 76.8988C52.0586 76.8988 48.4016 80.0202 48.4016 84.9052C48.4016 90.0045 52.1549 92.9951 56.3634 92.9951C59.0491 92.9951 61.0395 91.9467 62.2505 90.4097ZM56.0876 80.5682C58.2938 80.5682 59.0971 81.9742 59.157 83.1298H53.0422C53.1381 81.9979 54.1212 80.5682 56.0876 80.5682Z" fill="#696969"/>
<path d="M70.2242 84.9649C70.2242 87.3836 71.8548 88.718 73.7852 88.718C75.5957 88.718 76.6148 87.5862 76.9506 86.4542L81.0751 87.7053C80.4037 90.3741 77.8738 92.9954 73.7851 92.9954C69.2409 92.9954 65.5844 89.6712 65.5844 84.9652C65.5844 80.2351 69.1453 76.899 73.6419 76.899C77.8504 76.899 80.3084 79.4607 80.9916 82.1772L76.8071 83.4282C76.4714 82.2726 75.5481 81.1645 73.7377 81.1645C71.7953 81.1764 70.2242 82.5225 70.2242 84.9649Z" fill="#696969"/>
<path fill-rule="evenodd" clip-rule="evenodd" d="M90.318 93.0074C94.8979 93.0074 98.4352 89.6475 98.4352 84.9412C98.4352 80.2352 94.9103 76.8991 90.318 76.911C85.7617 76.911 82.2007 80.2349 82.2007 84.9412C82.2007 89.6475 85.7738 93.0074 90.318 93.0074ZM90.3298 81.1881C92.1162 81.1881 93.7709 82.3796 93.7709 84.9412C93.7709 87.5029 92.1043 88.7181 90.3298 88.7301C88.5792 88.7301 86.8886 87.4791 86.8886 84.9412C86.8886 82.3796 88.5792 81.1881 90.3298 81.1881Z" fill="#696969"/>
<path d="M100.221 92.5422V77.3632H104.681V79.1027C105.448 77.7563 107.414 76.8985 109.081 76.8985C111.263 76.8985 112.835 77.7801 113.601 79.2814C114.801 77.5657 116.275 76.8985 118.337 76.8985C121.228 76.8985 123.997 78.5785 123.997 82.7009V92.5303H119.477V83.7377C119.477 82.3079 118.709 81.176 117.043 81.176C115.388 81.176 114.489 82.4271 114.489 83.7734V92.5423H109.872V83.7497C109.872 82.3199 109.106 81.188 107.414 81.188C105.784 81.188 104.897 82.439 104.897 83.8093V92.5429L100.221 92.5422Z" fill="#696969"/>
<path d="M138.88 92.5422H134.216V77.3632H138.736V79.1027C139.564 77.6729 141.446 76.97 143.005 76.97C146.842 76.97 148.568 79.6865 148.568 83.0226V92.5539H143.892V83.8203C143.892 82.3191 143.089 81.1991 141.398 81.1991C139.863 81.1991 138.88 82.331 138.88 83.8561V92.5422Z" fill="#696969"/>
<path fill-rule="evenodd" clip-rule="evenodd" d="M157.607 94.7704C155.857 94.7704 154.633 93.6981 154.322 92.2326L150.198 93.3886C150.629 96.1051 153.422 98.7979 157.823 98.7979C163.542 98.7979 166 95.0209 166 90.6482V77.3635H161.54V78.9838C161.108 78.1855 159.789 77.0894 157.295 77.0894C153.123 77.0894 150.198 80.5085 150.198 84.5118C150.198 88.7178 153.242 91.899 157.295 91.899C159.514 91.899 160.833 91.0054 161.384 90.1833V90.8863C161.384 93.6386 159.945 94.7704 157.607 94.7704ZM158.159 81.1521C159.909 81.1521 161.42 82.4389 161.42 84.5121C161.42 86.5851 160.065 87.8719 158.159 87.8719C156.288 87.8719 154.873 86.5851 154.873 84.5121C154.873 82.4389 156.408 81.1521 158.159 81.1521Z" fill="#696969"/>
</svg>
