<svg width="188" height="168" viewBox="0 0 188 168" fill="none" xmlns="http://www.w3.org/2000/svg">
<g clip-path="url(#clip0_2_877)">
<path d="M97.1 76.1001H102.701V84.0001V97.7991H108.6C108.6 97.7991 108.6 88.6001 108.6 84.0001C108.6 81.4001 108.6 76.1001 108.6 76.1001H114.201V70.1001H97.201V76.1001H97.1ZM78.5 97.6991H93.8V91.6991H84.4V86.9001H91.9C91.9 86.9001 91.9 84.7981 91.9 83.6991C91.9 82.7991 91.9 80.9001 91.9 80.9001H84.4V76.1001H93.8V70.1001H78.5V97.6991ZM130.6 76.4001V70.1991C130 70.0991 129.3 70.0991 128.701 70.0991C121.201 70.0991 115.1 76.2981 115.1 83.9991C115.1 91.6981 121.201 97.8991 128.701 97.8991C129.401 97.8991 130.001 97.8991 130.6 97.7971V91.6001C130 91.7991 129.3 91.7991 128.701 91.7991C124.501 91.7991 121.1 88.2991 121.1 84.0001C121.1 79.6991 124.5 76.1991 128.701 76.1991C129.3 76.1001 130 76.1991 130.6 76.4001ZM66 91.6991H63.3V85.9001H66C67.5 86.0001 68.8 87.1991 68.8 88.7981C68.7 90.4001 67.5 91.6991 66 91.6991ZM63.3 76.1001H65.7C67 76.1001 68.099 77.2001 68.099 78.5001C68.099 79.7991 66.999 80.9001 65.7 80.9001H63.3V76.1001ZM65.3 70.1001H57.4V97.7001H64.8H65.4C70.4 97.7001 74.5 93.6001 74.5 88.5011C74.5 86.3001 73.8 84.6011 72.5 83.2001C73.4 82.1001 73.9 80.7001 73.9 78.9011C74 74.1001 70.1 70.1001 65.3 70.1001Z" fill="#696969"/>
</g>
<defs>
<clipPath id="clip0_2_877">
<rect width="188" height="168" fill="white"/>
</clipPath>
</defs>
</svg>
