<svg width="20" height="20" viewBox="0 0 20 20" fill="none" xmlns="http://www.w3.org/2000/svg">
<path d="M0.475743 4.99976C0.215617 4.99976 0 5.21977 0 5.48077V17.5178C0 17.7808 0.216606 17.9988 0.475743 17.9988H19.5243C19.7844 17.9988 20 17.7798 20 17.5178V5.48077C20 5.21877 19.7834 4.99976 19.5243 4.99976H0.475743ZM0.475743 5.48175H19.5243V6.56476L10.0005 13.6077L0.476732 6.56476V5.48175H0.475743ZM0.475743 7.15173L6.41313 11.5538L0.475743 17.1718V7.15173V7.15173ZM19.5243 7.15173V17.1727L13.5869 11.5547L19.5243 7.15173ZM6.80876 11.8378L9.85906 14.0947C9.94412 14.1587 10.0579 14.1587 10.1419 14.0947L13.1932 11.8378L19.19 17.5187H0.811038L6.80876 11.8378Z" fill="#F1F1F1"/>
</svg>
