<svg width="20" height="20" viewBox="0 0 20 20" fill="none" xmlns="http://www.w3.org/2000/svg">
<g clip-path="url(#clip0_8478_564)">
<path d="M9.877 0C5.673 0 2.25 3.458 2.25 7.695C2.25 11.865 9.436 19.56 9.742 19.863L9.877 20L10.012 19.863C10.318 19.56 17.504 11.898 17.504 7.695C17.504 3.458 14.081 0 9.877 0ZM9.877 19.523C8.895 18.474 2.588 11.455 2.588 7.695C2.588 3.627 5.843 0.34 9.877 0.34C13.911 0.34 17.166 3.627 17.166 7.695C17.166 11.455 10.859 18.441 9.877 19.523Z" fill="#F1F1F1" stroke="#F1F1F1" stroke-width="0.2" stroke-miterlimit="10"/>
<path d="M9.877 3.76294C8.114 3.76294 6.69 5.18594 6.69 6.98294C6.69 8.74594 8.114 10.2049 9.877 10.2049C11.64 10.2049 13.065 8.77994 13.065 6.98294C13.065 5.18594 11.64 3.76294 9.877 3.76294ZM9.877 9.83194C8.318 9.83194 7.03 8.54294 7.03 6.94794C7.03 5.35594 8.318 4.06794 9.877 4.06794C11.436 4.06794 12.725 5.35594 12.725 6.94794C12.725 8.54294 11.436 9.83194 9.877 9.83194Z" fill="#F1F1F1" stroke="#F1F1F1" stroke-width="0.2" stroke-miterlimit="10"/>
</g>
<defs>
<clipPath id="clip0_8478_564">
<rect width="20" height="20" fill="white"/>
</clipPath>
</defs>
</svg>
