<svg width="20" height="20" viewBox="0 0 20 20" fill="none" xmlns="http://www.w3.org/2000/svg">
<g clip-path="url(#clip0_8478_568)">
<path fill-rule="evenodd" clip-rule="evenodd" d="M4.0265 1.65545C4.0265 0.744674 4.79252 0 5.73075 0H13.3223C14.2617 0 15.0276 0.750822 15.0265 1.65556L14.9242 1.65545H15.0265V1.65556V18.3406C15.0265 19.2551 14.2617 20 13.3223 20H5.73075C4.79235 20 4.0265 19.2552 4.0265 18.3406V1.65545ZM5.73075 0.360396C4.99484 0.360396 4.39799 0.941388 4.39799 1.65545V18.3406C4.39799 19.0587 4.996 19.6396 5.73075 19.6396H13.3223C14.058 19.6396 14.655 19.0588 14.655 18.3406V1.65545C14.655 0.941388 14.0582 0.360396 13.3223 0.360396H5.73075Z" fill="#F1F1F1"/>
<path fill-rule="evenodd" clip-rule="evenodd" d="M4.60663 2.63599H14.4403V17.368H4.60663V2.63599ZM4.97913 2.99999V17.004H14.0688V2.99999H4.97913Z" fill="#F1F1F1"/>
</g>
<defs>
<clipPath id="clip0_8478_568">
<rect width="20" height="20" fill="white"/>
</clipPath>
</defs>
</svg>
